<svg width="14" height="14" viewBox="0 0 14 14" fill="none" xmlns="http://www.w3.org/2000/svg">
<path d="M14 12.6274L10.3535 9.00941C11.1944 7.85881 11.5697 6.43709 11.4053 5.02521C11.2409 3.61333 10.5486 2.31401 9.4654 1.38402C8.38218 0.454022 6.98676 -0.0389886 5.5549 0.00241105C4.12305 0.0438107 2.75893 0.616609 1.73213 1.60761C0.705317 2.59862 0.0905199 3.93573 0.00922743 5.35471C-0.0720651 6.77369 0.386061 8.17131 1.29307 9.27138C2.20009 10.3714 3.49 11.0939 4.9079 11.296C6.3258 11.4982 7.76854 11.1652 8.951 10.363L12.6166 14L14 12.6274ZM1.68192 5.67919C1.68192 4.88621 1.91892 4.11104 2.36294 3.4517C2.80697 2.79236 3.43808 2.27846 4.17646 1.975C4.91485 1.67154 5.72735 1.59214 6.51122 1.74684C7.29508 1.90155 8.01511 2.2834 8.58025 2.84413C9.14539 3.40485 9.53025 4.11925 9.68617 4.897C9.84209 5.67475 9.76207 6.4809 9.45622 7.21352C9.15037 7.94614 8.63243 8.57232 7.9679 9.01288C7.30337 9.45344 6.52209 9.68858 5.72287 9.68858C4.65153 9.68733 3.62443 9.26451 2.86688 8.51287C2.10933 7.76124 1.68318 6.74216 1.68192 5.67919Z" fill="#8E8E93"/>
</svg>
